<svg width="134" height="18" viewBox="0 0 134 18" fill="none" xmlns="http://www.w3.org/2000/svg">
    <path d="M92.9536 17.9712V0H99.0304V17.9712H92.9536Z" fill="#DC2631"/>
    <path d="M0.360001 17.9712C0.161178 17.9712 0 17.81 0 17.6113V0.360001C0 0.161178 0.161178 0 0.360001 0H22.3777V1.2672C22.3777 2.85779 21.0882 4.14722 19.4977 4.14722H6.43681C6.238 4.14722 6.07682 4.30838 6.07682 4.50721V6.60961C6.07682 6.80844 6.238 6.96962 6.43681 6.96962H14.2704C14.4693 6.96962 14.6304 7.13079 14.6304 7.32962V10.7568C14.6304 10.9556 14.4693 11.1168 14.2704 11.1168H6.43681C6.238 11.1168 6.07682 11.278 6.07682 11.4768V13.464C6.07682 13.6629 6.238 13.824 6.43681 13.824H22.0177C22.2165 13.824 22.3777 13.9852 22.3777 14.184V17.6113C22.3777 17.81 22.2165 17.9712 22.0177 17.9712H0.360001Z" fill="#DC2631"/>
    <path d="M86.5807 17.418C86.7331 17.6576 86.561 17.9712 86.277 17.9712H80.6146C80.4953 17.9712 80.3838 17.9121 80.3167 17.8134L78.8894 15.7099C78.8224 15.6111 78.7107 15.552 78.5914 15.552H66.3298C66.2104 15.552 66.0989 15.6111 66.0319 15.7099L64.6045 17.8134C64.5375 17.9121 64.426 17.9712 64.3067 17.9712H58.6165C58.3321 17.9712 58.1601 17.6573 58.3129 17.4177L68.9976 0.665644C69.2622 0.250998 69.72 0 70.2118 0H74.7085C75.2009 0 75.6591 0.251589 75.9234 0.667027L86.5807 17.418ZM75.6661 11.376C75.9527 11.376 76.1244 11.0574 75.9668 10.818L72.7503 5.93372C72.6072 5.71638 72.2878 5.71802 72.1469 5.93682L69.0019 10.8211C68.8477 11.0607 69.0197 11.376 69.3046 11.376H75.6661Z" fill="#DC2631"/>
    <path d="M48.1103 13.824C50.4008 13.824 52.2576 15.6808 52.2576 17.9712H30.2688C30.0699 17.9712 29.9086 17.81 29.9086 17.6113V14.9517C29.9086 13.9787 30.4 13.0715 31.215 12.5397L44.0784 4.14722H34.0271C31.7366 4.14722 29.8799 2.29044 29.8799 0H51.8976C52.0964 0 52.2576 0.161178 52.2576 0.360001V4.44139C52.2576 4.56327 52.1959 4.67687 52.0937 4.74328L38.1167 13.824H48.1103Z" fill="#DC2631"/>
    <path d="M104.371 18V15.12H107.265V18H104.371Z" fill="#DC2631"/>
    <path d="M112.645 9.00002H115.697V17.9856H112.645V9.00002Z" fill="#DC2631"/>
    <path d="M120.558 10.6128C120.558 10.3248 120.625 10.08 120.76 9.87843C120.894 9.67682 121.072 9.51363 121.293 9.38882C121.513 9.25443 121.763 9.15843 122.041 9.10082C122.32 9.03362 122.608 9.00002 122.905 9.00002H130.782C131.051 9.00002 131.325 9.03362 131.603 9.10082C131.891 9.16802 132.145 9.27362 132.366 9.41763C132.587 9.55202 132.769 9.72002 132.913 9.92163C133.057 10.1232 133.129 10.3536 133.129 10.6128V16.3729C133.129 16.6321 133.057 16.8624 132.913 17.0641C132.769 17.2657 132.587 17.4385 132.366 17.5824C132.145 17.7168 131.891 17.8176 131.603 17.8848C131.325 17.9521 131.051 17.9856 130.782 17.9856H122.905C122.608 17.9856 122.32 17.9569 122.041 17.8992C121.763 17.832 121.513 17.736 121.293 17.6113C121.072 17.4768 120.894 17.3088 120.76 17.1072C120.625 16.9057 120.558 16.6609 120.558 16.3729V10.6128ZM129.357 15.912C129.754 15.912 130.077 15.5897 130.077 15.192V11.7936C130.077 11.396 129.754 11.0736 129.357 11.0736H124.317C123.919 11.0736 123.597 11.396 123.597 11.7936V15.192C123.597 15.5897 123.919 15.912 124.317 15.912H129.357Z" fill="#DC2631"/>
</svg>
