<svg width="80" height="25" viewBox="0 0 80 25" fill="none" xmlns="http://www.w3.org/2000/svg">
    <path d="M0 15.8353H16.4106V12.181H4.4572V9.79556H10.7378V6.14126H4.4572V3.6543H16.4106V0H0V15.8353Z" fill="#DC2631"/>
    <path d="M35.1075 12.181H24.7496L35.1075 4.08571V0H18.697V3.6543H29.1055L18.7223 11.8004V15.8353H35.1075V12.181Z" fill="#DC2631"/>
    <path d="M37.3939 9.79556H46.283V6.14126H37.3939V9.79556Z" fill="#DC2631"/>
    <path d="M67.0342 15.8353H62.2731L61.0575 13.7036H51.7886L50.5983 15.8353H45.8119L54.1945 0H58.6516L67.0342 15.8353ZM59.2594 10.024L56.423 4.82165L53.6373 10.024H59.2594Z" fill="#DC2631"/>
    <path d="M68.6544 15.8353V12.181H72.0986V3.6543H68.6544V0H80V3.6543H76.5558V12.181H80V15.8353H68.6544Z" fill="#DC2631"/>
    <g opacity="0.56">
        <path d="M65.8486 24.1222C66.0688 24.1222 66.2541 24.0972 66.4046 24.047C66.5579 23.994 66.6819 23.923 66.7767 23.8338C66.8742 23.7446 66.9439 23.6401 66.9857 23.5203C67.0303 23.3976 67.0526 23.2666 67.0526 23.1273C67.0526 22.843 66.9551 22.62 66.76 22.4584C66.5677 22.294 66.2625 22.2117 65.8444 22.2117H64.6363V24.1222H65.8486ZM64.6363 19.6407V21.522H65.6145C66.0326 21.522 66.3447 21.4411 66.5509 21.2795C66.7572 21.1178 66.8603 20.8851 66.8603 20.5813C66.8603 20.2497 66.7628 20.01 66.5677 19.8623C66.3754 19.7146 66.073 19.6407 65.6605 19.6407H64.6363ZM65.6605 18.8757C66.0451 18.8757 66.374 18.9133 66.6471 18.9886C66.9202 19.061 67.1446 19.1655 67.3202 19.3021C67.4957 19.4387 67.6239 19.6059 67.7048 19.8038C67.7884 19.9989 67.8302 20.219 67.8302 20.4643C67.8302 20.6064 67.8079 20.7444 67.7633 20.8782C67.7215 21.0092 67.6546 21.1332 67.5626 21.2502C67.4734 21.3645 67.3606 21.4676 67.224 21.5596C67.0874 21.6516 66.9258 21.7282 66.7391 21.7895C67.5919 21.9707 68.0183 22.4236 68.0183 23.1482C68.0183 23.4046 67.9695 23.6401 67.872 23.8547C67.7772 24.0665 67.6379 24.2505 67.4539 24.4065C67.2728 24.5598 67.0484 24.6797 66.7809 24.766C66.5133 24.8524 66.2081 24.8956 65.8653 24.8956H63.658V18.8757H65.6605Z" fill="#DC2631"/>
        <path d="M71.6847 22.2828C71.6847 22.1323 71.6624 21.993 71.6178 21.8648C71.576 21.7338 71.5133 21.6209 71.4297 21.5261C71.3461 21.4286 71.2416 21.3533 71.1161 21.3004C70.9935 21.2447 70.8514 21.2168 70.6897 21.2168C70.3636 21.2168 70.1072 21.3101 69.9205 21.4969C69.7338 21.6836 69.6153 21.9456 69.5652 22.2828H71.6847ZM69.5401 22.8346C69.5512 23.0771 69.5889 23.2875 69.653 23.4659C69.7171 23.6415 69.8021 23.7878 69.908 23.9049C70.0167 24.0219 70.1449 24.1097 70.2926 24.1682C70.4431 24.224 70.6103 24.2518 70.7942 24.2518C70.9698 24.2518 71.1217 24.2323 71.2499 24.1933C71.3781 24.1515 71.4896 24.1069 71.5844 24.0595C71.6791 24.0094 71.7599 23.9648 71.8268 23.9258C71.8937 23.884 71.955 23.8631 72.0108 23.8631C72.0832 23.8631 72.139 23.8909 72.178 23.9467L72.433 24.2769C72.3271 24.4023 72.2073 24.5083 72.0735 24.5946C71.9397 24.681 71.7976 24.7521 71.6471 24.8079C71.4966 24.8608 71.3419 24.8984 71.183 24.9207C71.0242 24.9458 70.8695 24.9584 70.719 24.9584C70.4236 24.9584 70.149 24.9096 69.8954 24.812C69.6446 24.7117 69.4258 24.5654 69.2391 24.3731C69.0551 24.1808 68.9102 23.9425 68.8043 23.6582C68.7012 23.3739 68.6496 23.0465 68.6496 22.6758C68.6496 22.3804 68.6956 22.1044 68.7876 21.848C68.8823 21.5916 69.0161 21.3687 69.1889 21.1792C69.3645 20.9896 69.5763 20.8405 69.8244 20.7318C70.0752 20.6204 70.3581 20.5646 70.673 20.5646C70.935 20.5646 71.1774 20.6078 71.4004 20.6942C71.6234 20.7778 71.8157 20.9019 71.9773 21.0663C72.139 21.2307 72.2644 21.4328 72.3536 21.6725C72.4455 21.9094 72.4915 22.1797 72.4915 22.4835C72.4915 22.6228 72.4762 22.7162 72.4455 22.7636C72.4149 22.811 72.3591 22.8346 72.2783 22.8346H69.5401Z" fill="#DC2631"/>
        <path d="M74.6559 24.9625C74.302 24.9625 74.0288 24.8636 73.8365 24.6657C73.647 24.4651 73.5523 24.1836 73.5523 23.8213V21.338H73.0841C73.0339 21.338 72.9907 21.3227 72.9545 21.292C72.9182 21.2586 72.9001 21.2098 72.9001 21.1457V20.782L73.5899 20.6817L73.7864 19.4484C73.8003 19.401 73.824 19.3634 73.8574 19.3355C73.8909 19.3049 73.9355 19.2896 73.9912 19.2896H74.4511V20.69H75.6342V21.338H74.4511V23.7585C74.4511 23.9118 74.4887 24.0289 74.564 24.1097C74.6392 24.1905 74.7395 24.2309 74.865 24.2309C74.9346 24.2309 74.9945 24.2226 75.0447 24.2059C75.0949 24.1864 75.1381 24.1668 75.1743 24.1473C75.2105 24.125 75.2412 24.1055 75.2663 24.0888C75.2942 24.0693 75.3206 24.0595 75.3457 24.0595C75.3959 24.0595 75.4363 24.0874 75.4669 24.1432L75.7345 24.5821C75.5952 24.7047 75.4307 24.7995 75.2412 24.8664C75.0517 24.9305 74.8566 24.9625 74.6559 24.9625Z" fill="#DC2631"/>
        <path d="M78.621 23.0311C78.3005 23.0423 78.0302 23.0688 77.81 23.1106C77.5898 23.1496 77.4115 23.2011 77.2749 23.2652C77.1383 23.3266 77.0394 23.4004 76.9781 23.4868C76.9196 23.5732 76.8903 23.668 76.8903 23.7711C76.8903 23.8714 76.9056 23.9578 76.9363 24.0303C76.9697 24.1 77.0143 24.1585 77.07 24.2059C77.1286 24.2505 77.1955 24.2839 77.2707 24.3062C77.3488 24.3257 77.4338 24.3355 77.5257 24.3355C77.7598 24.3355 77.9605 24.2923 78.1277 24.2059C78.2977 24.1167 78.4622 23.9885 78.621 23.8213V23.0311ZM76.2381 21.2251C76.7203 20.7764 77.2944 20.5521 77.9605 20.5521C78.2058 20.5521 78.4231 20.5925 78.6127 20.6733C78.805 20.7514 78.9652 20.8628 79.0934 21.0078C79.2244 21.1527 79.3234 21.3255 79.3902 21.5261C79.4599 21.724 79.4948 21.9442 79.4948 22.1867V24.8956H79.0934C79.007 24.8956 78.9415 24.8831 78.8969 24.858C78.8523 24.8302 78.8147 24.7758 78.7841 24.695L78.6963 24.348C78.5876 24.4455 78.4803 24.5333 78.3744 24.6114C78.2685 24.6866 78.1584 24.7507 78.0441 24.8037C77.9326 24.8566 77.8114 24.8956 77.6804 24.9207C77.5522 24.9486 77.4101 24.9625 77.254 24.9625C77.0812 24.9625 76.9195 24.9388 76.7691 24.8915C76.6213 24.8441 76.4931 24.773 76.3844 24.6783C76.2757 24.5807 76.1894 24.4609 76.1253 24.3187C76.0639 24.1766 76.0333 24.0094 76.0333 23.8171C76.0333 23.6526 76.0765 23.4924 76.1629 23.3363C76.2521 23.1802 76.397 23.0409 76.5976 22.9183C76.8011 22.7928 77.0673 22.6897 77.3961 22.6089C77.7278 22.5281 78.1361 22.4821 78.621 22.4709V22.1867C78.621 21.8801 78.5555 21.6516 78.4245 21.5011C78.2935 21.3506 78.1012 21.2753 77.8476 21.2753C77.6748 21.2753 77.5299 21.2976 77.4129 21.3422C77.2958 21.384 77.1941 21.43 77.1077 21.4802C77.0213 21.5303 76.9446 21.5777 76.8777 21.6223C76.8109 21.6641 76.7398 21.685 76.6645 21.685C76.6032 21.685 76.5503 21.6697 76.5057 21.639C76.4639 21.6056 76.429 21.5652 76.4012 21.5178L76.2381 21.2251Z" fill="#DC2631"/>
    </g>
</svg>