<svg width="46" height="46" viewBox="0 0 46 46" fill="none" xmlns="http://www.w3.org/2000/svg">
<rect width="46" height="46" fill="white"/>
<path d="M28.4135 28.6306C28.5153 28.7906 28.4003 29 28.2106 29H24.4297C24.35 29 24.2755 28.9605 24.2308 28.8946L23.2777 27.49C23.233 27.4241 23.1585 27.3846 23.0788 27.3846H14.8913C14.8116 27.3846 14.7371 27.4241 14.6923 27.49L13.7392 28.8946C13.6945 28.9605 13.62 29 13.5403 29H9.74078C9.55098 29 9.43604 28.7904 9.53811 28.6303L16.6727 17.4445C16.8493 17.1676 17.155 17 17.4834 17H20.486C20.8148 17 21.1208 17.168 21.2972 17.4454L28.4135 28.6306ZM21.1254 24.5962C21.3168 24.5962 21.4315 24.3834 21.3262 24.2236L19.1784 20.9621C19.0829 20.817 18.8696 20.8181 18.7756 20.9642L16.6755 24.2256C16.5725 24.3856 16.6874 24.5962 16.8776 24.5962H21.1254Z" fill="#DC2631"/>
<path d="M30.5 29V17H34.5V29H30.5Z" fill="#DC2631"/>
</svg>
