<svg width="26" height="31" viewBox="0 0 26 31" fill="none" xmlns="http://www.w3.org/2000/svg">
<path d="M24.3333 30.8334H1.66667C0.930001 30.8334 0.333334 30.2367 0.333334 29.5001V1.50008C0.333334 0.763415 0.930001 0.166748 1.66667 0.166748H17.6667L25.6667 8.16675V29.5001C25.6667 30.2367 25.07 30.8334 24.3333 30.8334Z" fill="#3270EA"/>
<path d="M17.6667 0.166748V6.83342C17.6667 7.57008 18.2633 8.16675 19 8.16675H25.6667L17.6667 0.166748Z" fill="#1E55C0"/>
<path d="M18.0292 11.1478C17.8892 11.0297 17.7036 10.9784 17.5223 11.0084L10.022 12.2585C9.72137 12.3085 9.50011 12.5691 9.50011 12.8747V19.865C9.30385 19.795 9.09509 19.75 8.87508 19.75C7.84066 19.75 7 20.5913 7 21.6251C7 22.6589 7.84066 23.5002 8.87508 23.5002C9.9095 23.5002 10.7502 22.6589 10.7502 21.6251V16.5293L17.0004 15.4873V18.615C16.8042 18.545 16.5954 18.5 16.3754 18.5C15.341 18.5 14.5003 19.3413 14.5003 20.3751C14.5003 21.4089 15.341 22.2501 16.3754 22.2501C17.4098 22.2501 18.2505 21.4089 18.2505 20.3751V11.6247C18.2505 11.4409 18.1699 11.2665 18.0292 11.1478ZM10.7502 15.2623V13.4048L17.0004 12.3628V14.2204L10.7502 15.2623Z" fill="white"/>
</svg>
