<svg width="32" height="31" viewBox="0 0 32 31" fill="none" xmlns="http://www.w3.org/2000/svg">
<path d="M19.3333 2.83325H0.666664V28.1666C0.666664 29.2713 1.562 30.1666 2.66666 30.1666H19.3333V2.83325Z" fill="#DEF2FD"/>
<path d="M31.3333 2.83325H18.6667V30.1666H29.3333C30.438 30.1666 31.3333 29.2713 31.3333 28.1666V2.83325Z" fill="#60BEF6"/>
<path d="M27.3333 14.1666H22.6667C22.2987 14.1666 22 13.8679 22 13.4999C22 13.1319 22.2987 12.8333 22.6667 12.8333H27.3333C27.7013 12.8333 28 13.1319 28 13.4999C28 13.8679 27.7013 14.1666 27.3333 14.1666Z" fill="white"/>
<path d="M27.3333 10.1666H22.6667C22.2987 10.1666 22 9.86792 22 9.49992C22 9.13192 22.2987 8.83325 22.6667 8.83325H27.3333C27.7013 8.83325 28 9.13192 28 9.49992C28 9.86792 27.7013 10.1666 27.3333 10.1666Z" fill="white"/>
<path d="M27.3333 18.1666H22.6667C22.2987 18.1666 22 17.8679 22 17.4999C22 17.1319 22.2987 16.8333 22.6667 16.8333H27.3333C27.7013 16.8333 28 17.1319 28 17.4999C28 17.8679 27.7013 18.1666 27.3333 18.1666Z" fill="white"/>
<path d="M27.3333 22.1666H22.6667C22.2987 22.1666 22 21.8679 22 21.4999C22 21.1319 22.2987 20.8333 22.6667 20.8333H27.3333C27.7013 20.8333 28 21.1319 28 21.4999C28 21.8679 27.7013 22.1666 27.3333 22.1666Z" fill="white"/>
<path d="M27.3333 26.1666H22.6667C22.2987 26.1666 22 25.8679 22 25.4999C22 25.1319 22.2987 24.8333 22.6667 24.8333H27.3333C27.7013 24.8333 28 25.1319 28 25.4999C28 25.8679 27.7013 26.1666 27.3333 26.1666Z" fill="white"/>
<path d="M2.66666 0.833252H29.3333C30.438 0.833252 31.3333 1.72859 31.3333 2.83325V4.83325H0.666664V2.83325C0.666664 1.72859 1.562 0.833252 2.66666 0.833252Z" fill="#1C75B5"/>
</svg>
