<svg width="32" height="31" viewBox="0 0 32 31" fill="none" xmlns="http://www.w3.org/2000/svg">
<path d="M29.3333 17.5001H2.66667L0.666666 14.8334L3.33333 12.1667H28.6667L31.3333 14.8334L29.3333 17.5001Z" fill="#147D44"/>
<path d="M27.3333 30.8334H4.66667C3.93 30.8334 3.33333 30.2367 3.33333 29.5001V1.50008C3.33333 0.763415 3.93 0.166748 4.66667 0.166748H20.6667L28.6667 8.16675V29.5001C28.6667 30.2367 28.07 30.8334 27.3333 30.8334Z" fill="#E2E8F0"/>
<path opacity="0.25" d="M20.6667 0.166748V6.83342C20.6667 7.57008 21.2633 8.16675 22 8.16675H28.6667L20.6667 0.166748Z" fill="#6B7B91"/>
<path d="M30 26.8335H2C1.26333 26.8335 0.666666 26.2368 0.666666 25.5002V14.8335H31.3333V25.5002C31.3333 26.2368 30.7367 26.8335 30 26.8335Z" fill="#22AC61"/>
<path d="M11.8573 19.3502C11.5207 19.3502 11.258 19.4875 11.0693 19.7635C10.8807 20.0389 10.7867 20.4189 10.7867 20.9035C10.7867 21.9115 11.17 22.4155 11.936 22.4155C12.1673 22.4155 12.392 22.3829 12.6093 22.3182C12.8267 22.2535 13.0447 22.1762 13.2647 22.0855V23.2809C12.828 23.4749 12.334 23.5715 11.782 23.5715C10.992 23.5715 10.386 23.3422 9.96466 22.8842C9.54333 22.4255 9.33266 21.7629 9.33266 20.8975C9.33266 20.3555 9.43466 19.8795 9.63866 19.4682C9.84333 19.0575 10.1367 18.7415 10.5193 18.5209C10.9027 18.3002 11.3533 18.1902 11.8713 18.1902C12.4373 18.1902 12.978 18.3129 13.4933 18.5589L13.06 19.6722C12.8667 19.5815 12.6733 19.5055 12.48 19.4429C12.2867 19.3809 12.0793 19.3502 11.8573 19.3502Z" fill="white"/>
<path d="M17.708 21.9102C17.708 22.2349 17.6253 22.5229 17.4607 22.7749C17.296 23.0269 17.058 23.2229 16.748 23.3622C16.438 23.5022 16.0733 23.5715 15.656 23.5715C15.3073 23.5715 15.0153 23.5469 14.7787 23.4982C14.542 23.4495 14.2967 23.3642 14.0413 23.2422V21.9815C14.3113 22.1202 14.5913 22.2282 14.8827 22.3055C15.174 22.3829 15.4413 22.4215 15.6847 22.4215C15.8947 22.4215 16.0487 22.3855 16.1467 22.3129C16.2447 22.2402 16.2933 22.1462 16.2933 22.0315C16.2933 21.9602 16.2733 21.8975 16.2347 21.8435C16.1947 21.7902 16.132 21.7355 16.0447 21.6809C15.958 21.6262 15.7253 21.5135 15.3487 21.3442C15.0073 21.1895 14.7513 21.0389 14.5807 20.8929C14.41 20.7469 14.2833 20.5802 14.2013 20.3915C14.1187 20.2029 14.0773 19.9802 14.0773 19.7222C14.0773 19.2395 14.2527 18.8635 14.604 18.5942C14.9553 18.3249 15.4373 18.1902 16.0507 18.1902C16.5927 18.1902 17.1453 18.3155 17.7087 18.5655L17.2753 19.6575C16.786 19.4335 16.3633 19.3215 16.008 19.3215C15.824 19.3215 15.6907 19.3535 15.6067 19.4182C15.5227 19.4829 15.4813 19.5629 15.4813 19.6575C15.4813 19.7602 15.5347 19.8522 15.6407 19.9335C15.7467 20.0149 16.0347 20.1629 16.5053 20.3775C16.9567 20.5809 17.2693 20.7982 17.4453 21.0309C17.62 21.2642 17.708 21.5569 17.708 21.9102Z" fill="white"/>
<path d="M21.4573 18.2646H23.04L21.3247 23.5H19.6593L17.9513 18.2646H19.5413L20.254 20.9173C20.402 21.5073 20.4833 21.918 20.4973 22.1493C20.514 21.9826 20.5473 21.774 20.5973 21.5233C20.6473 21.2726 20.692 21.0753 20.73 20.932L21.4573 18.2646Z" fill="white"/>
</svg>
