<svg width="32" height="31" viewBox="0 0 32 31" fill="none" xmlns="http://www.w3.org/2000/svg">
<path d="M29.3333 17.5001H2.66667L0.666666 14.8334L3.33333 12.1667H28.6667L31.3333 14.8334L29.3333 17.5001Z" fill="#870000"/>
<path d="M27.3333 30.8334H4.66667C3.93 30.8334 3.33333 30.2367 3.33333 29.5001V1.50008C3.33333 0.763415 3.93 0.166748 4.66667 0.166748H20.6667L28.6667 8.16675V29.5001C28.6667 30.2367 28.07 30.8334 27.3333 30.8334Z" fill="#E6E6E6"/>
<path d="M20.6667 0.166748V6.83342C20.6667 7.57008 21.2633 8.16675 22 8.16675H28.6667L20.6667 0.166748Z" fill="#B3B3B3"/>
<path d="M30 26.8335H2C1.26333 26.8335 0.666666 26.2368 0.666666 25.5002V14.8335H31.3333V25.5002C31.3333 26.2368 30.7367 26.8335 30 26.8335Z" fill="#BD0100"/>
<path d="M13.3807 19.93C13.3807 20.5153 13.208 20.9673 12.8633 21.2853C12.518 21.6047 12.0287 21.7633 11.3933 21.7633H10.996V23.5H9.58133V18.2646H11.3933C12.0547 18.2646 12.5513 18.4093 12.8827 18.6973C13.2147 18.9866 13.3807 19.398 13.3807 19.93ZM10.996 20.6106H11.254C11.4667 20.6106 11.6353 20.5506 11.7607 20.4306C11.886 20.3113 11.9487 20.1466 11.9487 19.9373C11.9487 19.584 11.7533 19.4073 11.3613 19.4073H10.996V20.6106Z" fill="white"/>
<path d="M18.6587 20.7713C18.6587 21.6453 18.418 22.318 17.9367 22.7906C17.456 23.264 16.78 23.5 15.9087 23.5H14.2147V18.2646H16.0267C16.8667 18.2646 17.5153 18.4793 17.9727 18.9093C18.43 19.3393 18.6587 19.9593 18.6587 20.7713ZM17.1907 20.8213C17.1907 20.3413 17.096 19.986 16.906 19.754C16.7167 19.522 16.428 19.4066 16.0413 19.4066H15.6293V22.3386H15.9447C16.3747 22.3386 16.6893 22.2133 16.89 21.964C17.0907 21.7146 17.1907 21.3346 17.1907 20.8213Z" fill="white"/>
<path d="M20.9893 23.5H19.5967V18.2646H22.6907V19.3993H20.99V20.3986H22.5587V21.5333H20.99V23.5H20.9893Z" fill="white"/>
</svg>
